<svg width="48" height="48" viewBox="0 0 48 48" fill="none" xmlns="http://www.w3.org/2000/svg">
<circle cx="24" cy="24" r="20" stroke="#E1E1E1" stroke-width="2"/>
<path d="M22.8587 13.5125C23.218 12.4069 24.782 12.4069 25.1413 13.5125L26.8738 18.8446C27.0344 19.339 27.4952 19.6738 28.015 19.6738H33.6216C34.784 19.6738 35.2674 21.1613 34.3269 21.8446L29.7911 25.14C29.3706 25.4456 29.1946 25.9872 29.3552 26.4817L31.0877 31.8138C31.4469 32.9194 30.1816 33.8387 29.2411 33.1554L24.7053 29.86C24.2848 29.5544 23.7152 29.5544 23.2947 29.86L18.7589 33.1554C17.8184 33.8387 16.5531 32.9193 16.9123 31.8138L18.6448 26.4817C18.8054 25.9872 18.6294 25.4456 18.2089 25.14L13.6731 21.8446C12.7326 21.1613 13.216 19.6738 14.3784 19.6738H19.985C20.5048 19.6738 20.9656 19.339 21.1262 18.8446L22.8587 13.5125Z" fill="#FFA800"/>
</svg>
