<svg width="30" height="27" viewBox="0 0 30 27" fill="none" xmlns="http://www.w3.org/2000/svg">
<path d="M28.875 5.25H1.125V25.875H28.875V5.25Z" stroke="#65676D" stroke-width="2.25" stroke-miterlimit="10"/>
<path d="M6.75 0V9" stroke="#65676D" stroke-width="2.25" stroke-miterlimit="10"/>
<path d="M23.25 0V9" stroke="#65676D" stroke-width="2.25" stroke-miterlimit="10"/>
<path d="M9.75 10.5H3.75V16.5H9.75V10.5Z" fill="#65676D"/>
<path d="M16.5 10.5H13.5V13.5H16.5V10.5Z" fill="#65676D"/>
<path d="M21.375 10.5H18.375V13.5H21.375V10.5Z" fill="#65676D"/>
<path d="M26.25 10.5H23.25V13.5H26.25V10.5Z" fill="#65676D"/>
<path d="M16.5 15H13.5V18H16.5V15Z" fill="#65676D"/>
<path d="M21.375 15H18.375V18H21.375V15Z" fill="#65676D"/>
<path d="M26.25 15H23.25V18H26.25V15Z" fill="#65676D"/>
<path d="M16.5 19.5H13.5V22.5H16.5V19.5Z" fill="#65676D"/>
<path d="M11.625 19.5H8.625V22.5H11.625V19.5Z" fill="#65676D"/>
<path d="M6.75 19.5H3.75V22.5H6.75V19.5Z" fill="#65676D"/>
<path d="M21.375 19.5H18.375V22.5H21.375V19.5Z" fill="#65676D"/>
<path d="M26.25 19.5H23.25V22.5H26.25V19.5Z" fill="#65676D"/>
</svg>
