<svg width="24" height="24" viewBox="0 0 24 24" fill="none" xmlns="http://www.w3.org/2000/svg">
<path d="M4.53003 3.5V16C4.53003 17.655 5.87503 19 7.53003 19H17.75" stroke="#65676D" stroke-width="2" stroke-miterlimit="10"/>
<path d="M17.75 10.5H4.5" stroke="#65676D" stroke-width="2" stroke-miterlimit="10"/>
<path d="M18 12.5C19.1046 12.5 20 11.6046 20 10.5C20 9.39543 19.1046 8.5 18 8.5C16.8954 8.5 16 9.39543 16 10.5C16 11.6046 16.8954 12.5 18 12.5Z" fill="#65676D"/>
<path d="M18 21C19.1046 21 20 20.1046 20 19C20 17.8954 19.1046 17 18 17C16.8954 17 16 17.8954 16 19C16 20.1046 16.8954 21 18 21Z" fill="#65676D"/>
</svg>
